HIERARCHY
ROOT Hips
{
	OFFSET -0.001795 -0.223333 0.028219
	CHANNELS 6 Xposition Yposition Zposition Zrotation Yrotation Xrotation 
	JOINT LeftUpLeg
	{
		OFFSET 0.069520 -0.091406 -0.006815
		CHANNELS 3 Zrotation Yrotation Xrotation
		JOINT LeftLeg
		{
			OFFSET 0.034277 -0.375199 -0.004496
			CHANNELS 3 Zrotation Yrotation Xrotation
			JOINT LeftFoot
			{
				OFFSET -0.013596 -0.397961 -0.043693
				CHANNELS 3 Zrotation Yrotation Xrotation
				JOINT LeftToe
				{
					OFFSET 0.026358 -0.055791 0.119288
					CHANNELS 3 Zrotation Yrotation Xrotation
					End Site
					{
						OFFSET 0.000000 0.000000 0.000000
					}
				}
			}
		}
	}
	JOINT RightUpLeg
	{
		OFFSET -0.067670 -0.090522 -0.004320
		CHANNELS 3 Zrotation Yrotation Xrotation
		JOINT RightLeg
		{
			OFFSET -0.038290 -0.382569 -0.008850
			CHANNELS 3 Zrotation Yrotation Xrotation
			JOINT RightFoot
			{
				OFFSET 0.015774 -0.398415 -0.042312
				CHANNELS 3 Zrotation Yrotation Xrotation
				JOINT RightToe
				{
					OFFSET -0.025372 -0.048144 0.123348
					CHANNELS 3 Zrotation Yrotation Xrotation
					End Site
					{
						OFFSET 0.000000 0.000000 0.000000
					}
				}
			}
		}
	}
	JOINT Spine
	{
		OFFSET -0.002533 0.108963 -0.026696
		CHANNELS 3 Zrotation Yrotation Xrotation
		JOINT Spine1
		{
			OFFSET 0.005487 0.135180 0.001092
			CHANNELS 3 Zrotation Yrotation Xrotation
			JOINT Spine2
			{
				OFFSET 0.001457 0.052922 0.025425
				CHANNELS 3 Zrotation Yrotation Xrotation
				JOINT Neck
				{
					OFFSET -0.002778 0.213870 -0.042857
					CHANNELS 3 Zrotation Yrotation Xrotation
					JOINT Head
					{
						OFFSET 0.005152 0.064970 0.051349
						CHANNELS 3 Zrotation Yrotation Xrotation
						End Site
						{
							OFFSET 0.000000 0.000000 0.000000
						}
					}
				}
				JOINT LeftShoulder
				{
					OFFSET 0.078845 0.121749 -0.034090
					CHANNELS 3 Zrotation Yrotation Xrotation
					JOINT LeftArm
					{
						OFFSET 0.090977 0.030469 -0.008868
						CHANNELS 3 Zrotation Yrotation Xrotation
						JOINT LeftForeArm
						{
							OFFSET 0.259612 -0.012772 -0.027456
							CHANNELS 3 Zrotation Yrotation Xrotation
							JOINT LeftHand
							{
								OFFSET 0.249234 0.008986 -0.001171
								CHANNELS 3 Zrotation Yrotation Xrotation
								End Site
								{
									OFFSET 0.000000 0.000000 0.000000
								}
							}
						}
					}
				}
				JOINT RightShoulder
				{
					OFFSET -0.081759 0.118833 -0.038615
					CHANNELS 3 Zrotation Yrotation Xrotation
					JOINT RightArm
					{
						OFFSET -0.096012 0.032551 -0.009143
						CHANNELS 3 Zrotation Yrotation Xrotation
						JOINT RightForeArm
						{
							OFFSET -0.253742 -0.013329 -0.021401
							CHANNELS 3 Zrotation Yrotation Xrotation
							JOINT RightHand
							{
								OFFSET -0.255298 0.007772 -0.005559
								CHANNELS 3 Zrotation Yrotation Xrotation
								End Site
								{
									OFFSET 0.000000 0.000000 0.000000
								}
							}
						}
					}
				}
			}
		}
	}
}
MOTION
Frames: 13
Frame Time: 0.050000
0.010275 0.961889 -0.009368 -0.184382 2.983451 5.056940 2.955332 -0.166889 -1.223383 -0.647058 0.295450 -8.627946 -1.970115 3.131228 15.673903 0.000000 0.000000 0.000000 -2.527824 0.115888 -0.475920 -0.530394 -0.359434 -9.068379 1.950662 -1.021532 12.706376 0.000000 0.000000 0.000000 0.081607 0.207915 -5.415729 -0.113328 0.182954 -3.802727 -0.412172 -2.551539 5.459806 3.648968 -0.732853 -20.183702 0.000000 0.000000 0.000000 -19.135239 -0.527526 -2.517100 -53.784847 2.287831 -7.450768 -3.197672 -23.057301 1.590054 0.000000 0.000000 0.000000 12.789666 0.681807 -0.971812 46.730934 15.799908 1.401600 -127.274414 58.834724 -91.234970 0.000000 0.000000 0.000000
0.010157 0.961969 -0.010497 0.029943 2.399189 5.145759 2.692705 -0.148175 -1.046710 -0.612217 0.308581 -9.035549 -1.964134 3.123501 15.877505 0.000000 0.000000 0.000000 -2.729628 0.147255 -0.769050 -0.460355 -0.349290 -8.864207 1.977804 -0.978275 12.496239 0.000000 0.000000 0.000000 0.206707 0.229055 -5.810657 -0.140269 0.173373 -3.329589 -0.456813 -2.444107 4.734796 3.384138 -0.619798 -19.903999 0.000000 0.000000 0.000000 -18.852924 -0.340582 -2.649223 -54.466724 1.989503 -7.356061 -2.888409 -22.307610 1.476175 0.000000 0.000000 0.000000 11.716567 1.567339 -0.506147 46.424835 18.433134 2.454580 -131.045639 58.053867 -95.143784 0.000000 0.000000 0.000000
0.009866 0.961943 -0.011616 0.046569 2.015713 5.285509 2.641382 -0.141399 -0.970761 -0.691800 0.317786 -9.212074 -1.858980 3.083509 15.475478 0.000000 0.000000 0.000000 -2.634506 0.181560 -1.203326 -0.624594 -0.335988 -8.721970 2.137338 -0.697554 12.421420 0.000000 0.000000 0.000000 0.360448 0.235217 -5.820305 -0.142816 0.179801 -3.617999 -0.495037 -2.329529 4.600813 3.508508 -0.725291 -19.603722 0.000000 0.000000 0.000000 -18.873514 -0.809706 -1.874012 -54.458153 1.925514 -7.315796 -2.760339 -22.141138 1.440666 0.000000 0.000000 0.000000 11.101521 2.626098 0.015231 45.466454 21.090408 3.381314 -132.631668 55.650955 -94.220802 0.000000 0.000000 0.000000
0.009573 0.961780 -0.012810 0.008705 1.740120 5.327169 2.636880 -0.141654 -0.988396 -0.719464 0.316564 -9.056520 -1.849090 2.907931 15.054237 0.000000 0.000000 0.000000 -2.650997 0.215522 -1.617652 -0.610953 -0.315916 -8.313567 1.990059 -0.942162 12.215439 0.000000 0.000000 0.000000 0.599246 0.244678 -5.873465 -0.069494 0.147986 -3.701135 -0.577346 -2.066063 4.318277 3.735294 -0.853719 -19.392973 0.000000 0.000000 0.000000 -18.547228 -1.203567 -0.912833 -54.831146 1.581481 -7.185872 -2.273669 -21.605761 1.305386 0.000000 0.000000 0.000000 10.188242 3.403773 0.447589 44.183521 23.422981 4.114634 -131.558899 53.246647 -89.686119 0.000000 0.000000 0.000000
0.009351 0.961392 -0.014066 0.023304 1.630720 5.370769 2.587420 -0.153057 -1.171949 -0.873257 0.315136 -8.812146 -1.796310 2.798030 14.564808 0.000000 0.000000 0.000000 -2.894097 0.262500 -2.169193 -0.386224 -0.287371 -7.520813 2.152486 -0.485951 11.834523 0.000000 0.000000 0.000000 0.694693 0.241061 -5.726840 0.005039 0.119613 -3.867124 -0.560660 -1.620913 4.096126 4.013475 -1.025346 -18.810745 0.000000 0.000000 0.000000 -18.777807 -1.605941 -2.003229 -54.175987 1.583283 -7.062532 -2.209413 -21.545628 1.269943 0.000000 0.000000 0.000000 9.509728 3.772287 0.705644 41.998684 24.793365 4.311253 -129.488937 50.245430 -82.826698 0.000000 0.000000 0.000000
0.009166 0.961190 -0.015260 -0.101017 1.562256 5.473871 2.521836 -0.165180 -1.362742 -0.712464 0.304076 -8.532894 -1.742560 2.779154 14.302303 0.000000 0.000000 0.000000 -2.940332 0.300292 -2.652198 -0.361919 -0.272461 -7.167255 2.201400 -0.466046 11.998934 0.000000 0.000000 0.000000 1.027132 0.243601 -5.613686 -0.111613 0.180642 -4.255272 -0.792046 -1.219186 4.231124 4.415275 -1.242465 -18.534927 0.000000 0.000000 0.000000 -18.487427 -1.957493 -1.933915 -54.194408 1.173588 -6.880514 -1.557986 -21.443012 1.127031 0.000000 0.000000 0.000000 8.837122 3.957979 0.882556 40.652523 25.877380 4.461976 -127.978294 47.891171 -77.432846 0.000000 0.000000 0.000000
0.008908 0.960626 -0.016167 -0.047419 1.583642 5.413878 2.467099 -0.163716 -1.359320 -0.794271 0.305683 -8.505675 -1.755825 2.684563 14.090130 0.000000 0.000000 0.000000 -3.065211 0.298622 -2.620302 -0.214829 -0.267709 -6.908905 2.311161 -0.234033 11.964813 0.000000 0.000000 0.000000 1.092393 0.244685 -5.605966 -0.271719 0.247878 -4.198745 -0.819612 -0.911516 4.318397 4.649424 -1.364624 -18.364632 0.000000 0.000000 0.000000 -18.694916 -2.220448 -0.556113 -53.490128 1.049746 -6.726355 -1.292938 -21.596716 1.072576 0.000000 0.000000 0.000000 8.686261 3.972736 0.938238 38.826801 26.179520 4.259075 -126.524536 45.015419 -71.454628 0.000000 0.000000 0.000000
0.008513 0.960634 -0.016850 0.074988 1.733785 5.464882 2.425739 -0.178797 -1.577750 -0.795176 0.303929 -8.465875 -1.896074 2.537967 14.239969 0.000000 0.000000 0.000000 -3.323917 0.305996 -2.693970 -0.036508 -0.272666 -6.821974 2.531944 0.171007 12.086748 0.000000 0.000000 0.000000 1.225469 0.246790 -5.611929 -0.444958 0.320923 -4.093677 -1.041779 -0.569187 4.230164 4.911874 -1.504343 -18.030142 0.000000 0.000000 0.000000 -18.933084 -2.663747 -1.630090 -52.345398 1.136458 -6.575224 -1.079309 -22.039972 1.032291 0.000000 0.000000 0.000000 8.564132 3.473265 0.783644 37.482071 25.569485 3.860261 -125.211250 42.613831 -66.223579 0.000000 0.000000 0.000000
0.008057 0.960429 -0.017540 0.124877 1.915321 5.276604 2.361784 -0.170968 -1.488153 -0.673187 0.295344 -8.314974 -1.921870 2.457907 14.059083 0.000000 0.000000 0.000000 -3.374378 0.295119 -2.572789 -0.000560 -0.267950 -6.658411 2.541848 0.273628 11.950681 0.000000 0.000000 0.000000 1.314734 0.247706 -5.592972 -0.547500 0.369557 -4.188021 -1.198663 -0.491209 4.609123 4.862843 -1.458829 -18.066124 0.000000 0.000000 0.000000 -19.027622 -2.647109 -1.774678 -51.741226 1.350450 -6.605557 -1.523054 -22.606192 1.140711 0.000000 0.000000 0.000000 8.283861 3.188112 0.704752 37.087055 25.273800 3.679590 -124.556091 40.799099 -62.700535 0.000000 0.000000 0.000000
0.007571 0.960377 -0.018431 0.104610 2.232587 4.949622 2.441726 -0.161261 -1.341667 -0.711346 0.291165 -8.176857 -2.001382 2.380623 14.065105 0.000000 0.000000 0.000000 -3.226045 0.264571 -2.232080 -0.111043 -0.257138 -6.517842 2.349566 -0.057353 11.944558 0.000000 0.000000 0.000000 1.363131 0.228956 -5.190040 -0.717609 0.457019 -4.635160 -1.292542 -0.302574 5.241323 4.925668 -1.478692 -17.991175 0.000000 0.000000 0.000000 -19.167969 -3.362588 -0.966208 -51.052441 1.448631 -6.587964 -1.650826 -22.769299 1.161936 0.000000 0.000000 0.000000 8.489366 3.006900 0.672003 36.180531 24.662552 3.304498 -124.169594 38.966450 -59.275585 0.000000 0.000000 0.000000
0.007176 0.960324 -0.019497 0.111027 2.757127 4.780003 2.543072 -0.172898 -1.476036 -0.749668 0.280311 -7.810504 -2.194330 2.103030 13.946205 0.000000 0.000000 0.000000 -3.133037 0.249605 -2.097834 -0.073239 -0.252508 -6.343151 2.028940 -0.493300 11.652299 0.000000 0.000000 0.000000 1.343376 0.222990 -5.111466 -0.719502 0.461505 -4.506922 -1.455888 -0.403641 5.478041 4.788246 -1.354738 -18.206621 0.000000 0.000000 0.000000 -18.927210 -3.261231 -0.248190 -50.813236 1.164223 -6.451760 -1.749969 -23.052856 1.189838 0.000000 0.000000 0.000000 8.344797 2.748210 0.594984 36.293324 23.841341 3.060499 -124.056374 38.018002 -57.569183 0.000000 0.000000 0.000000
0.006742 0.960485 -0.020604 0.113132 3.014111 4.478876 2.603955 -0.161966 -1.311461 -0.683064 0.276383 -7.797433 -2.278868 2.024592 13.992763 0.000000 0.000000 0.000000 -3.021595 0.224858 -1.830964 -0.008048 -0.257134 -6.359563 1.835012 -0.839333 11.646893 0.000000 0.000000 0.000000 1.355368 0.202188 -4.673072 -0.774587 0.496346 -4.811762 -1.481685 -0.308118 6.077134 4.616004 -1.214984 -18.430096 0.000000 0.000000 0.000000 -18.830826 -3.576227 -1.226860 -50.605335 1.059616 -6.426208 -2.101490 -23.822136 1.298208 0.000000 0.000000 0.000000 8.798626 2.847913 0.657193 36.115654 23.499435 2.878982 -124.553154 37.731995 -57.417538 0.000000 0.000000 0.000000
0.006336 0.960605 -0.021550 0.185694 3.094937 4.251151 2.791786 -0.162504 -1.285844 -0.939986 0.280710 -7.617460 -2.304430 2.021415 14.058127 0.000000 0.000000 0.000000 -2.894715 0.206929 -1.643265 0.058999 -0.253039 -6.173020 1.522464 -1.372771 11.452377 0.000000 0.000000 0.000000 1.231982 0.187851 -4.402736 -0.804411 0.503693 -4.547550 -1.450220 -0.137310 6.100357 4.601472 -1.190725 -18.380497 0.000000 0.000000 0.000000 -18.526768 -3.903146 -1.068214 -50.355404 1.000410 -6.363348 -2.418103 -24.600035 1.398678 0.000000 0.000000 0.000000 9.100188 2.996657 0.737065 36.085094 23.028467 2.726782 -125.246986 37.914532 -58.244438 0.000000 0.000000 0.000000
